<svg xmlns="http://www.w3.org/2000/svg" xmlns:xlink="http://www.w3.org/1999/xlink" width="500" zoomAndPan="magnify" viewBox="0 0 375 374.999991" height="500" preserveAspectRatio="xMidYMid meet" version="1.0"><defs><clipPath id="fbaa43cb2d"><path d="M 1 59.453125 L 211 59.453125 L 211 290 L 1 290 Z M 1 59.453125 " clip-rule="nonzero"/></clipPath><clipPath id="f5ef2b1337"><path d="M 184 85.285156 L 375 85.285156 L 375 315.164062 L 184 315.164062 Z M 184 85.285156 " clip-rule="nonzero"/></clipPath></defs><g clip-path="url(#fbaa43cb2d)"><path fill="#ffffff" d="M 143.535156 254.9375 C 138.492188 256.84375 133.269531 257.75 128.023438 257.75 C 111.492188 257.75 94.71875 248.742188 82.488281 233.566406 C 89.238281 235.027344 96.046875 235.777344 102.832031 235.777344 C 113.421875 235.777344 123.960938 233.949219 134.136719 230.097656 C 146.816406 225.300781 157.835938 217.78125 167 208.21875 C 167.265625 207.933594 167.527344 207.648438 167.789062 207.367188 C 168.390625 206.726562 168.980469 206.078125 169.566406 205.421875 C 169.851562 205.09375 170.136719 204.769531 170.421875 204.441406 C 170.996094 203.773438 171.558594 203.097656 172.113281 202.414062 C 172.363281 202.113281 172.613281 201.8125 172.851562 201.507812 C 173.636719 200.527344 174.40625 199.53125 175.160156 198.515625 C 175.195312 199.363281 175.214844 200.207031 175.226562 201.050781 C 175.230469 201.320312 175.226562 201.585938 175.226562 201.855469 C 175.226562 202.429688 175.226562 203.003906 175.210938 203.574219 C 175.203125 203.882812 175.191406 204.195312 175.179688 204.503906 C 175.164062 205.03125 175.140625 205.558594 175.113281 206.082031 C 175.09375 206.402344 175.070312 206.71875 175.046875 207.035156 C 175.011719 207.554688 174.972656 208.066406 174.925781 208.578125 C 174.898438 208.890625 174.867188 209.195312 174.835938 209.507812 C 174.78125 210.027344 174.722656 210.546875 174.65625 211.070312 C 174.621094 211.355469 174.582031 211.644531 174.539062 211.933594 C 174.464844 212.480469 174.382812 213.023438 174.292969 213.566406 C 174.25 213.820312 174.214844 214.070312 174.167969 214.320312 C 174.0625 214.921875 173.949219 215.519531 173.828125 216.113281 C 173.789062 216.296875 173.757812 216.484375 173.714844 216.671875 C 173.5625 217.410156 173.390625 218.144531 173.214844 218.867188 C 173.207031 218.90625 173.199219 218.949219 173.183594 218.984375 C 172.59375 221.378906 171.867188 223.699219 171.019531 225.945312 C 171 226 170.980469 226.050781 170.957031 226.105469 C 170.703125 226.785156 170.433594 227.460938 170.148438 228.128906 C 170.113281 228.21875 170.070312 228.304688 170.035156 228.394531 C 169.765625 229.027344 169.488281 229.652344 169.191406 230.269531 C 169.148438 230.367188 169.101562 230.464844 169.054688 230.566406 C 168.761719 231.175781 168.457031 231.78125 168.148438 232.378906 C 168.101562 232.464844 168.054688 232.550781 168.011719 232.636719 C 167.683594 233.257812 167.347656 233.867188 167 234.464844 C 166.964844 234.523438 166.933594 234.582031 166.898438 234.640625 C 166.519531 235.292969 166.128906 235.9375 165.71875 236.570312 C 160.347656 244.933594 152.84375 251.417969 143.535156 254.9375 Z M 64.398438 175.472656 C 57.386719 178.125 51.398438 182.515625 46.550781 188.210938 C 45.316406 189.664062 42.964844 188.726562 43.082031 186.828125 C 43.820312 174.789062 49.53125 164.792969 59.003906 161.210938 C 61.433594 160.292969 63.960938 159.851562 66.511719 159.851562 C 73.914062 159.851562 81.554688 163.535156 87.886719 169.875 C 89.234375 171.226562 88.105469 173.484375 86.21875 173.210938 C 83.992188 172.890625 81.769531 172.730469 79.554688 172.730469 C 74.398438 172.730469 69.300781 173.613281 64.398438 175.472656 Z M 144.871094 128.730469 C 147.304688 127.808594 149.828125 127.371094 152.382812 127.371094 C 159.78125 127.371094 167.425781 131.046875 173.757812 137.390625 C 175.105469 138.738281 173.972656 141 172.085938 140.730469 C 169.859375 140.410156 167.636719 140.25 165.421875 140.25 C 160.269531 140.25 155.175781 141.132812 150.265625 142.988281 C 143.253906 145.640625 137.265625 150.035156 132.417969 155.726562 C 131.1875 157.179688 128.832031 156.246094 128.953125 154.347656 C 129.691406 142.308594 135.398438 132.3125 144.871094 128.730469 Z M 180.085938 264.074219 C 180.460938 263.574219 180.839844 263.0625 181.214844 262.546875 C 181.484375 262.1875 181.75 261.824219 182.015625 261.457031 C 182.386719 260.957031 182.753906 260.445312 183.121094 259.933594 C 183.40625 259.542969 183.6875 259.140625 183.96875 258.742188 C 184.324219 258.242188 184.683594 257.738281 185.039062 257.226562 C 185.453125 256.636719 185.863281 256.039062 186.273438 255.4375 C 186.742188 254.753906 187.207031 254.0625 187.675781 253.363281 C 188.027344 252.839844 188.378906 252.316406 188.730469 251.78125 C 189.03125 251.320312 189.332031 250.855469 189.632812 250.390625 C 189.972656 249.867188 190.3125 249.339844 190.652344 248.804688 C 190.941406 248.34375 191.234375 247.878906 191.523438 247.414062 C 191.875 246.851562 192.226562 246.277344 192.578125 245.707031 C 192.847656 245.265625 193.113281 244.828125 193.382812 244.382812 C 193.816406 243.65625 194.242188 242.925781 194.671875 242.191406 C 194.839844 241.890625 195.019531 241.597656 195.1875 241.300781 C 195.761719 240.304688 196.320312 239.300781 196.871094 238.289062 C 197.082031 237.90625 197.28125 237.527344 197.488281 237.144531 C 197.855469 236.464844 198.214844 235.78125 198.570312 235.09375 C 198.792969 234.675781 199.007812 234.25 199.222656 233.828125 C 199.5625 233.15625 199.894531 232.484375 200.226562 231.808594 C 200.429688 231.394531 200.632812 230.984375 200.828125 230.570312 C 201.1875 229.816406 201.535156 229.054688 201.878906 228.296875 C 202.03125 227.96875 202.1875 227.640625 202.332031 227.316406 C 202.808594 226.242188 203.273438 225.160156 203.722656 224.082031 C 203.820312 223.828125 203.917969 223.578125 204.019531 223.324219 C 204.359375 222.484375 204.691406 221.632812 205.011719 220.789062 C 205.15625 220.40625 205.292969 220.019531 205.433594 219.636719 C 205.699219 218.90625 205.957031 218.175781 206.203125 217.441406 C 206.335938 217.042969 206.46875 216.640625 206.601562 216.246094 C 206.84375 215.488281 207.074219 214.734375 207.300781 213.980469 C 207.40625 213.625 207.515625 213.265625 207.617188 212.910156 C 207.910156 211.875 208.1875 210.835938 208.4375 209.800781 C 208.453125 209.738281 208.472656 209.671875 208.484375 209.609375 C 208.75 208.511719 208.984375 207.417969 209.195312 206.324219 C 209.261719 205.996094 209.3125 205.664062 209.371094 205.335938 C 209.507812 204.570312 209.636719 203.796875 209.75 203.03125 C 209.804688 202.644531 209.855469 202.257812 209.902344 201.875 C 210 201.144531 210.074219 200.417969 210.144531 199.691406 C 210.175781 199.320312 210.210938 198.945312 210.238281 198.570312 C 210.296875 197.757812 210.335938 196.941406 210.359375 196.132812 C 210.367188 195.867188 210.382812 195.605469 210.386719 195.339844 C 210.40625 194.273438 210.386719 193.214844 210.34375 192.160156 C 210.332031 191.921875 210.304688 191.6875 210.292969 191.449219 C 210.242188 190.636719 210.175781 189.824219 210.085938 189.019531 C 210.050781 188.726562 210.015625 188.433594 209.972656 188.140625 C 209.875 187.421875 209.765625 186.699219 209.632812 185.976562 C 209.5625 185.574219 209.484375 185.175781 209.402344 184.777344 C 209.253906 184.074219 209.078125 183.375 208.894531 182.679688 C 208.808594 182.363281 208.734375 182.042969 208.644531 181.722656 C 208.347656 180.722656 208.03125 179.734375 207.660156 178.753906 L 191.128906 135.054688 L 164.484375 64.621094 C 163.320312 61.539062 160.445312 59.804688 157.503906 59.804688 C 155.726562 59.804688 153.921875 60.4375 152.453125 61.789062 C 133.679688 79.109375 111.339844 93.195312 85.984375 102.789062 C 62.09375 111.824219 37.570312 116.097656 13.460938 116.097656 C 11.972656 116.097656 10.496094 116.085938 9.015625 116.050781 C 8.960938 116.050781 8.902344 116.046875 8.847656 116.046875 C 3.648438 116.046875 0.0195312 121.242188 1.867188 126.136719 L 45.042969 240.265625 C 57.90625 274.261719 115.609375 285.863281 142.851562 289.492188 C 144.050781 289.648438 145.246094 289.726562 146.441406 289.726562 C 154.242188 289.726562 161.726562 286.363281 166.914062 280.390625 C 170.539062 276.214844 174.878906 270.96875 179.386719 265 C 179.621094 264.691406 179.851562 264.386719 180.085938 264.074219 " fill-opacity="1" fill-rule="nonzero"/></g><g clip-path="url(#f5ef2b1337)"><path fill="#ffffff" d="M 334.207031 210.789062 C 334.351562 212.6875 332.011719 213.652344 330.757812 212.222656 C 325.832031 206.597656 319.78125 202.289062 312.734375 199.738281 C 308.007812 198.03125 303.113281 197.210938 298.179688 197.210938 C 295.75 197.210938 293.304688 197.410156 290.867188 197.796875 C 288.988281 198.09375 287.835938 195.847656 289.160156 194.480469 C 295.492188 187.960938 303.207031 184.148438 310.710938 184.148438 C 313.15625 184.148438 315.578125 184.554688 317.917969 185.40625 C 327.449219 188.851562 333.296875 198.765625 334.207031 210.789062 Z M 367.535156 139.527344 C 367.441406 139.527344 367.347656 139.527344 367.253906 139.53125 C 364.804688 139.617188 362.347656 139.664062 359.886719 139.664062 C 336.714844 139.664062 313.15625 135.714844 290.105469 127.371094 C 264.617188 118.144531 242.074219 104.382812 223.050781 87.335938 C 221.59375 86.03125 219.828125 85.425781 218.082031 85.425781 C 215.101562 85.425781 212.195312 87.203125 211.058594 90.335938 L 196.726562 129.941406 L 207.703125 158.957031 C 212.925781 155.078125 218.71875 152.902344 224.382812 152.902344 C 226.828125 152.902344 229.25 153.308594 231.597656 154.15625 C 241.121094 157.605469 246.96875 167.519531 247.878906 179.542969 C 248.023438 181.441406 245.683594 182.40625 244.433594 180.976562 C 239.503906 175.351562 233.453125 171.042969 226.40625 168.492188 C 221.679688 166.78125 216.789062 165.964844 211.851562 165.964844 C 211.359375 165.964844 210.867188 166 210.371094 166.015625 L 214.25 176.261719 C 220.007812 191.492188 217.941406 210.023438 208.1875 231.398438 C 217.953125 242.0625 229.910156 250.339844 243.78125 255.359375 C 253.585938 258.910156 263.703125 260.601562 273.851562 260.601562 C 281.078125 260.601562 288.316406 259.746094 295.476562 258.089844 C 283.308594 273.636719 266.378906 282.929688 249.640625 282.929688 C 244.609375 282.929688 239.601562 282.089844 234.742188 280.332031 C 218.292969 274.378906 207.261719 259.210938 203.609375 240.605469 C 197.84375 251.320312 190.992188 261.378906 184.445312 269.992188 C 193.464844 284.671875 204.132812 297.621094 211.726562 306.117188 C 216.917969 311.921875 224.285156 315.164062 231.945312 315.164062 C 233.265625 315.164062 234.59375 315.070312 235.921875 314.875 C 263.105469 310.855469 320.644531 298.429688 333.011719 264.253906 L 374.542969 149.511719 C 376.3125 144.628906 372.675781 139.527344 367.535156 139.527344 " fill-opacity="1" fill-rule="nonzero"/></g></svg>